<svg width="65" height="52" viewBox="0 0 65 52" fill="none" xmlns="http://www.w3.org/2000/svg">
<path d="M11.2248 3.55789L15.6552 1L28.6308 5.56908L29.6941 4.82247C32.1136 3.12375 35.4646 4.68147 35.7256 7.62618L43.0336 10.0525L50.7868 5.57618C54.2578 4.21479 61.5353 2.22829 63.4397 4.91666L63.4482 4.91173C63.466 4.94257 63.483 4.97368 63.4993 5.00507C63.5184 5.03493 63.5369 5.06535 63.5548 5.09631L63.5462 5.10125C64.9222 8.09465 59.5631 13.4039 56.6486 15.7292L48.8954 20.2055L47.3427 27.7476C49.7119 29.3231 49.5238 32.8623 47.0009 34.1779L45.5768 34.9204L43.0459 48.4421L38.6155 51L36.3427 27.4528L17.7894 34.9648L16.1663 44.5166L11.5513 47.1811L11.6976 38.4819L6.46269 37.9728L8.60684 33.1285L1 28.9057L5.61499 26.2412L14.6986 29.6114L30.4809 17.2998L11.2248 3.55789Z" stroke="#303030" stroke-width="2" stroke-linejoin="round"/>
<path fill-rule="evenodd" clip-rule="evenodd" d="M9.14844 35.7323L12.7329 30.8036H15.4212L51.7139 7.50461C54.0513 6.33594 59.1034 4.36712 61.0006 5.62316C61.2966 5.57692 61.4901 5.60438 61.5711 5.71235C62.9152 7.50457 58.0594 12.4604 55.8741 13.9973L17.2139 33.0439L16.3178 35.2842L10.045 37.0764L9.14864 36.6283C9.14892 36.6282 9.1492 36.628 9.14948 36.6278C9.14913 36.628 9.14878 36.6282 9.14844 36.6284V35.7323Z" fill="#FF5C04"/>
</svg>
