<svg width="78" height="52" viewBox="0 0 78 52" fill="none" xmlns="http://www.w3.org/2000/svg">
<rect x="29.6797" y="25.0322" width="41.084" height="16.2799" rx="2" fill="#FF5C04"/>
<rect x="4.875" y="3.32568" width="34.8827" height="8.52756" rx="2" fill="#FF5C04"/>
<path d="M66.0155 50.7613L66.664 50.0001L66.0155 50.7613ZM58.8444 44.652L59.4929 43.8908L58.8444 44.652ZM26.8047 23.1562C26.8047 22.604 27.2524 22.1562 27.8047 22.1562V20.1562C26.1478 20.1562 24.8047 21.4994 24.8047 23.1562H26.8047ZM26.8047 42.4132V23.1562H24.8047V42.4132H26.8047ZM27.8047 43.4132C27.2524 43.4132 26.8047 42.9655 26.8047 42.4132H24.8047C24.8047 44.0701 26.1478 45.4132 27.8047 45.4132V43.4132ZM58.1959 43.4132H27.8047V45.4132H58.1959V43.4132ZM66.664 50.0001L59.4929 43.8908L58.1959 45.4132L65.367 51.5225L66.664 50.0001ZM66.664 45.4132V50.0001H68.664V45.4132H66.664ZM72.6404 43.4132H68.664V45.4132H72.6404V43.4132ZM73.6404 42.4132C73.6404 42.9655 73.1927 43.4132 72.6404 43.4132V45.4132C74.2973 45.4132 75.6404 44.0701 75.6404 42.4132H73.6404ZM73.6404 23.1563V42.4132H75.6404V23.1563H73.6404ZM72.6404 22.1562C73.1927 22.1562 73.6404 22.604 73.6404 23.1563H75.6404C75.6404 21.4994 74.2973 20.1562 72.6404 20.1562V22.1562ZM27.8047 22.1562H72.6404V20.1562H27.8047V22.1562ZM68.664 45.4132V43.4132C67.5594 43.4132 66.664 44.3087 66.664 45.4132H68.664ZM65.367 51.5225C66.6656 52.6287 68.664 51.7059 68.664 50.0001H66.664L65.367 51.5225ZM58.1959 45.4132L59.4929 43.8908C59.131 43.5826 58.6712 43.4132 58.1959 43.4132V45.4132Z" fill="#303030"/>
<path d="M9.62511 20.5269L10.2736 21.2881L9.62511 20.5269ZM16.7961 14.4177L16.1476 13.6565L16.7961 14.4177ZM43.4102 3C43.4102 2.44772 42.9624 2 42.4102 2V0C44.067 0 45.4102 1.34315 45.4102 3H43.4102ZM43.4102 12.179V3H45.4102V12.179H43.4102ZM42.4102 13.179C42.9624 13.179 43.4102 12.7312 43.4102 12.179H45.4102C45.4102 13.8358 44.067 15.179 42.4102 15.179V13.179ZM17.4446 13.179H42.4102V15.179H17.4446V13.179ZM8.97661 19.7657L16.1476 13.6565L17.4446 15.179L10.2736 21.2881L8.97661 19.7657ZM8.97661 15.179V19.7657H6.97661V15.179H8.97661ZM3.00062 13.179H6.97661V15.179H3.00062V13.179ZM2.00062 12.179C2.00062 12.7312 2.44833 13.179 3.00062 13.179V15.179C1.34377 15.179 0.000617981 13.8358 0.000617981 12.179H2.00062ZM2.00062 3V12.179H0.000617981V3H2.00062ZM3.00062 2C2.44833 2 2.00062 2.44772 2.00062 3H0.000617981C0.000617981 1.34315 1.34377 0 3.00062 0V2ZM42.4102 2H3.00062V0H42.4102V2ZM6.97661 15.179V13.179C8.08118 13.179 8.97661 14.0744 8.97661 15.179H6.97661ZM10.2736 21.2881C8.97507 22.3944 6.97661 21.4716 6.97661 19.7657H8.97661L10.2736 21.2881ZM17.4446 15.179L16.1476 13.6565C16.5095 13.3483 16.9693 13.179 17.4446 13.179V15.179Z" fill="#303030"/>
<path d="M7.97656 7.03906H36.2703" stroke="#303030" stroke-width="2" stroke-linecap="round"/>
<path d="M35.1055 28.9082H63.3992" stroke="#303030" stroke-width="2" stroke-linecap="round"/>
<path d="M35.1055 32.7847H63.3992" stroke="#303030" stroke-width="2" stroke-linecap="round"/>
<path d="M35.1055 36.6606H56.8102" stroke="#303030" stroke-width="2" stroke-linecap="round"/>
<path d="M61.4968 14.3229L57.1719 10.7812" stroke="#303030" stroke-width="2" stroke-linecap="round"/>
<path d="M72.6751 14.3229L77 10.7812" stroke="#303030" stroke-width="2" stroke-linecap="round"/>
<path d="M67.1191 11.0307L67.0204 3.71785" stroke="#303030" stroke-width="2" stroke-linecap="round"/>
</svg>
