<svg width="137" height="31" viewBox="0 0 137 31" fill="none" xmlns="http://www.w3.org/2000/svg">
<g clip-path="url(#clip0_179_1694)">
<path d="M23.2462 27.2481C24.4458 27.2481 25.4182 26.2655 25.4182 25.0533C25.4182 23.8411 24.4458 22.8584 23.2462 22.8584C22.0466 22.8584 21.0742 23.8411 21.0742 25.0533C21.0742 26.2655 22.0466 27.2481 23.2462 27.2481Z" fill="#FF5C04"/>
<path d="M28.7711 27.2481C29.9707 27.2481 30.9431 26.2655 30.9431 25.0533C30.9431 23.8411 29.9707 22.8584 28.7711 22.8584C27.5716 22.8584 26.5991 23.8411 26.5991 25.0533C26.5991 26.2655 27.5716 27.2481 28.7711 27.2481Z" fill="#FF5C04"/>
<path d="M0 8.20227H33.1803V25.5286H32.6248V24.5627H31.2635C31.2635 24.5627 30.9432 22.5044 28.7713 22.5044C26.3691 22.5044 26.1739 25.0532 26.1739 25.0532H25.8085C25.8085 25.0532 25.6934 22.4538 23.2412 22.4538C20.789 22.4538 20.6138 25.0532 20.6138 25.0532H18.8222V21.8469H0V8.20227Z" fill="#FF5C04"/>
<path d="M38.4551 0.5H39.3059V30.5H38.4551V0.671949" fill="white"/>
<path d="M55.1653 11.0395H48.3341V15.7225H54.6198V18.8985H48.3341V26.09H44.2554V7.8584H55.1603V11.0344L55.1653 11.0395Z" fill="white"/>
<path d="M57.9229 26.09V6.82666H61.9015V26.09H57.9229Z" fill="white"/>
<path d="M64.6538 19.6419C64.6538 17.5027 65.3294 15.8186 66.6757 14.5947C68.0219 13.3708 69.8335 12.7589 72.1056 12.7589C74.3777 12.7589 76.0492 13.3607 77.3404 14.5644C78.6316 15.768 79.2822 17.3864 79.2822 19.4194C79.2822 21.5536 78.6165 23.2528 77.2953 24.5172C75.9691 25.7815 74.1725 26.4137 71.9104 26.4137C69.6484 26.4137 67.9218 25.8068 66.6156 24.5981C65.3094 23.3894 64.6588 21.7356 64.6588 19.652L64.6538 19.6419ZM68.6925 19.5964C68.6925 22.1908 69.8035 23.4905 72.0255 23.4905C74.2476 23.4905 75.2235 22.1554 75.2235 19.4902C75.2235 16.825 74.1475 15.677 72.0005 15.677C70.9546 15.677 70.1438 16.0158 69.5583 16.6986C68.9778 17.3813 68.6875 18.3472 68.6875 19.5913L68.6925 19.5964Z" fill="white"/>
<path d="M90.8027 16.5216C90.3172 16.2535 89.7267 16.1221 89.0361 16.1221C88.1302 16.1221 87.4096 16.4508 86.8791 17.1082C86.3486 17.7657 86.0834 18.6709 86.0834 19.8291V26.09H82.0947V13.0725H86.0834V15.5202H86.1334C86.794 13.7401 87.9901 12.85 89.7267 12.85C90.1971 12.85 90.5524 12.9005 90.8027 13.0017V16.5216Z" fill="white"/>
<path d="M93.1501 13.8614C93.7656 13.5327 94.5914 13.2646 95.6273 13.0624C96.6633 12.8601 97.5441 12.7589 98.2747 12.7589C102.093 12.7589 104.005 14.5846 104.005 18.2309V26.09H100.212V24.1935H100.161C99.2306 25.6702 97.8694 26.4036 96.0727 26.4036C94.7816 26.4036 93.7456 26.0546 92.9649 25.3516C92.1892 24.6487 91.7988 23.6928 91.7988 22.4841C91.7988 19.9909 93.3603 18.5394 96.4781 18.1298L100.232 17.6493C100.232 16.1372 99.4058 15.3786 97.7493 15.3786C96.0928 15.3786 94.5814 15.8489 93.1401 16.7896V13.8614H93.1501ZM97.6592 20.1932C96.2179 20.3752 95.4972 20.9922 95.4972 22.0543C95.4972 22.5398 95.6724 22.9342 96.0227 23.2326C96.373 23.531 96.8434 23.6777 97.439 23.6777C98.2547 23.6777 98.9253 23.4046 99.4508 22.8533C99.9763 22.3021 100.242 21.6193 100.242 20.8051V19.8746L97.6592 20.1932Z" fill="white"/>
<path d="M120.415 26.0899H116.451V18.8276C116.451 16.7238 115.656 15.6719 114.069 15.6719C113.313 15.6719 112.683 15.95 112.177 16.5114C111.677 17.0727 111.422 17.7858 111.422 18.6607V26.0849H107.433V13.0724H111.422V15.1408H111.472C112.468 13.5478 113.934 12.7538 115.871 12.7538C118.904 12.7538 120.415 14.5441 120.415 18.1196V26.0849V26.0899Z" fill="white"/>
<path d="M137 26.09H133.021V24.2542H132.961C131.996 25.6905 130.574 26.4086 128.688 26.4086C126.951 26.4086 125.57 25.8219 124.544 24.6537C123.518 23.4855 123.007 21.8924 123.007 19.8745C123.007 17.7403 123.583 16.0209 124.729 14.7161C125.88 13.4113 127.376 12.7589 129.233 12.7589C131.09 12.7589 132.256 13.3708 132.961 14.5947H133.021V6.82666H137V26.09ZM133.087 18.7215C133.087 17.8415 132.811 17.1132 132.251 16.5367C131.695 15.9602 131 15.6719 130.169 15.6719C129.198 15.6719 128.432 16.036 127.877 16.7693C127.321 17.5027 127.041 18.4989 127.041 19.7532C127.041 21.0074 127.306 21.8671 127.842 22.5145C128.377 23.1618 129.113 23.4855 130.054 23.4855C130.935 23.4855 131.66 23.1466 132.226 22.4639C132.796 21.7811 133.077 20.8961 133.077 19.8037V18.7215H133.087Z" fill="white"/>
</g>
<defs>
<clipPath id="clip0_179_1694">
<rect width="137" height="30" fill="white" transform="translate(0 0.5)"/>
</clipPath>
</defs>
</svg>
