<svg width="42" height="50" viewBox="0 0 42 50" fill="none" xmlns="http://www.w3.org/2000/svg">
<path d="M19.5472 12.9205C15.5448 15.3409 17.1384 19.9802 18.4354 21.9972C18.4354 21.9972 19.6658 25.0328 22.3265 24.4177C24.2842 23.9651 25.4325 22.7334 26.7735 20.787C28.4412 18.3665 30.1088 16.5512 30.1088 16.5512L34 11.1051L27.3294 10.5C26.7736 11.3068 23.5495 10.5 19.5472 12.9205Z" fill="#FF5C04"/>
<path d="M19.7063 23.531C19.6557 23.4301 19.6062 23.3232 19.5586 23.2109M19.5586 23.2109C18.6654 21.1047 18.4325 17.1063 23.8834 15.6955C29.6249 14.2095 32.6834 16.7332 33.495 18.1808C32.6908 18.1052 30.6785 18.6757 29.062 21.5618C27.0413 25.1695 22.4483 27.2899 19.5586 23.2109Z" stroke="#303030" stroke-width="2" stroke-linejoin="round"/>
<path d="M19.0343 22.5582C17.5707 20.7109 15.6041 16.2836 19.446 13.3534C21.6625 11.6628 25.3861 12.9718 26.7329 8.38825C27.4359 10.223 27.7694 12.3395 27.7335 14.7378" stroke="#303030" stroke-width="2" stroke-linejoin="round"/>
<path d="M18.5 23C17.4075 25.5 15.0007 27 20 32C24.5543 36.5549 23.4999 40.5 22.4999 45.5" stroke="#303030" stroke-width="2" stroke-linecap="round" stroke-linejoin="round"/>
<path d="M23.6454 38.4982L25.3914 35.8616" stroke="#303030" stroke-width="2" stroke-linecap="round" stroke-linejoin="round"/>
<path d="M26.6922 31.0335C24.3448 32.0581 24.9337 34.3571 25.5216 35.3786C28.1584 37.1246 30.2878 35.6269 30.6472 33.6524L31.8178 29.3074C31.0873 29.4558 29.0395 30.0088 26.6922 31.0335Z" stroke="#303030" stroke-width="2" stroke-linecap="round" stroke-linejoin="round"/>
<path d="M16.4869 26.0143L14.3191 23.712" stroke="#303030" stroke-width="2" stroke-linecap="round" stroke-linejoin="round"/>
<path d="M12.2191 19.1745C14.7062 19.7863 14.5157 22.1519 14.1095 23.2582C11.807 25.426 9.45447 24.3112 8.76541 22.4262L6.87497 18.3426C7.62005 18.365 9.73198 18.5627 12.2191 19.1745Z" stroke="#303030" stroke-width="2" stroke-linecap="round" stroke-linejoin="round"/>
<mask id="path-9-inside-1_555_5565" fill="white">
<path fill-rule="evenodd" clip-rule="evenodd" d="M21 0C10.5066 0 2 8.50659 2 19V44C0.895431 44 0 44.8954 0 46V48C0 49.1046 0.89543 50 2 50H4H38H40C41.1046 50 42 49.1046 42 48V46C42 44.8954 41.1046 44 40 44V19C40 8.50659 31.4934 0 21 0Z"/>
</mask>
<path d="M2 44V46H4V44H2ZM40 44H38V46H40V44ZM4 19C4 9.61116 11.6112 2 21 2V-2C9.40202 -2 0 7.40202 0 19H4ZM4 44V19H0V44H4ZM2 46V42C-0.20914 42 -2 43.7909 -2 46H2ZM2 48V46H-2V48H2ZM2 48H2H-2C-2 50.2091 -0.20914 52 2 52V48ZM4 48H2V52H4V48ZM38 48H4V52H38V48ZM40 48H38V52H40V48ZM40 48V52C42.2091 52 44 50.2091 44 48H40ZM40 46V48H44V46H40ZM40 46H44C44 43.7909 42.2091 42 40 42V46ZM38 19V44H42V19H38ZM21 2C30.3888 2 38 9.61116 38 19H42C42 7.40202 32.598 -2 21 -2V2Z" fill="#303030" mask="url(#path-9-inside-1_555_5565)"/>
</svg>
