<svg width="78" height="49" viewBox="0 0 78 49" fill="none" xmlns="http://www.w3.org/2000/svg">
<path d="M1 14.0195L30.5563 1.33467C31.0547 1.12078 31.6185 1.11845 32.1187 1.32821L62.3777 14.0195" stroke="#303030" stroke-width="2" stroke-linecap="round"/>
<path d="M5.58594 11.3159V45.9955C5.58594 47.1001 6.48137 47.9955 7.58594 47.9955H55.1666C56.2711 47.9955 57.1666 47.1001 57.1666 45.9955V11.3159" stroke="#303030" stroke-width="2"/>
<rect x="14.8984" y="28.6559" width="32" height="19.1935" rx="2" stroke="#303030" stroke-width="2"/>
<path d="M25.9219 29.6559V36.6803C25.9219 37.2326 26.3696 37.6803 26.9219 37.6803H35.2389C35.7912 37.6803 36.2389 37.2326 36.2389 36.6803V29.6559" stroke="#303030" stroke-width="2"/>
<rect x="28" y="13.7549" width="22" height="14.6086" rx="2" stroke="#303030" stroke-width="2"/>
<path d="M34.5547 14V20C34.5547 20.5523 35.0024 21 35.5547 21H42.4436C42.9959 21 43.4436 20.5523 43.4436 20V14" stroke="#303030" stroke-width="2"/>
<path d="M76.9661 25.2982L75.9733 25.4174L76.9661 25.2982ZM71.0783 17.5843V12.4764H69.0783V17.5843H71.0783ZM68.7734 25.8538C68.7734 25.7062 68.7822 25.561 68.7993 25.4187L66.8134 25.1811C66.787 25.4021 66.7734 25.6266 66.7734 25.8538H68.7734ZM68.7734 43.3828V25.8538H66.7734V43.3828H68.7734ZM75.9992 25.8538V43.3828H77.9992V25.8538H75.9992ZM75.9733 25.4174C75.9904 25.56 75.9992 25.7057 75.9992 25.8538H77.9992C77.9992 25.6258 77.9856 25.4006 77.959 25.179L75.9733 25.4174ZM73.6913 12.4764V17.5807H75.6913V12.4764H73.6913ZM77.959 25.179C77.7809 23.6952 77.1405 22.2786 76.6334 21.0619C76.0987 19.7786 75.6913 18.6785 75.6913 17.5807H73.6913C73.6913 19.1294 74.2635 20.5742 74.7873 21.8312C75.3389 23.1547 75.8359 24.2736 75.9733 25.4174L77.959 25.179ZM66.7734 43.3828C66.7734 46.4827 69.2864 48.9957 72.3863 48.9957V46.9957C70.391 46.9957 68.7734 45.3782 68.7734 43.3828H66.7734ZM69.0783 17.5843C69.0783 18.6819 68.6712 19.7818 68.137 21.0648C67.6305 22.2813 66.9909 23.6976 66.8134 25.1811L68.7993 25.4187C68.9361 24.2753 69.4325 23.1566 69.9834 21.8335C70.5066 20.5768 71.0783 19.1324 71.0783 17.5843H69.0783ZM72.3848 11.1699C73.1063 11.1699 73.6913 11.7548 73.6913 12.4764H75.6913C75.6913 10.6503 74.2109 9.16992 72.3848 9.16992V11.1699ZM72.3863 48.9957C75.4863 48.9957 77.9992 46.4827 77.9992 43.3828H75.9992C75.9992 45.3782 74.3817 46.9957 72.3863 46.9957V48.9957ZM72.3848 9.16992C70.5587 9.16992 69.0783 10.6503 69.0783 12.4764H71.0783C71.0783 11.7548 71.6633 11.1699 72.3848 11.1699V9.16992Z" fill="#303030"/>
<path d="M72.3594 43.4108L72.3594 23.9248" stroke="#303030" stroke-width="2" stroke-linecap="round"/>
<path d="M72.3594 43.4118L72.3594 33.0947" stroke="#FF5C04" stroke-width="2" stroke-linecap="round"/>
</svg>
