<svg width="50" height="50" viewBox="0 0 50 50" fill="none" xmlns="http://www.w3.org/2000/svg">
<path d="M42.6262 34.4508C40.9662 37.5467 38.5202 40.1507 35.5341 42.0009C32.5481 43.8511 29.1274 44.8822 25.6163 44.9905C22.1052 45.0988 18.6275 44.2803 15.5332 42.6176C12.4388 40.9548 9.83702 38.5064 7.98952 35.5187C6.14202 32.531 5.11402 29.1094 5.00895 25.5982C4.90388 22.087 5.72546 18.61 7.391 15.5172C9.05655 12.4244 11.5073 9.82478 14.4967 7.97999C17.4861 6.1352 20.9086 5.1103 24.4199 5.00841L25 25L42.6262 34.4508Z" fill="#FF5C04"/>
<circle cx="25" cy="25" r="24" stroke="#303030" stroke-width="2"/>
<path d="M24.4453 9.48291V25.5559L34.377 30.6252" stroke="#303030" stroke-width="2" stroke-linecap="round"/>
</svg>
