<svg width="130" height="40" viewBox="0 0 130 40" fill="none" xmlns="http://www.w3.org/2000/svg">
<path d="M31.7285 4.42859L38.8555 11.5556L31.7285 18.6826" stroke="#FF5C04" stroke-width="2" stroke-linecap="round" stroke-linejoin="round"/>
<path d="M22.2227 11.5555L18.6592 11.5555" stroke="#FF5C04" stroke-width="2" stroke-linecap="round" stroke-linejoin="round"/>
<path d="M13.9102 11.5555L10.3467 11.5555" stroke="#FF5C04" stroke-width="2" stroke-linecap="round" stroke-linejoin="round"/>
<path d="M38.8555 11.5555L26.9772 11.5555" stroke="#FF5C04" stroke-width="2" stroke-linecap="round" stroke-linejoin="round"/>
<path d="M10.3457 22.2461L3.21875 29.3731L10.3457 36.5001" stroke="#303030" stroke-width="2" stroke-linecap="round" stroke-linejoin="round"/>
<path d="M21.0352 29.373L24.5986 29.373" stroke="#303030" stroke-width="2" stroke-linecap="round" stroke-linejoin="round"/>
<path d="M29.3477 29.373L32.9111 29.373" stroke="#303030" stroke-width="2" stroke-linecap="round" stroke-linejoin="round"/>
<path d="M3.8125 29.373L15.6908 29.373" stroke="#303030" stroke-width="2" stroke-linecap="round" stroke-linejoin="round"/>
<path d="M118.265 12.3561L124.051 18.1417C124.681 18.7717 124.235 19.8488 123.344 19.8488H115.308C114.756 19.8488 114.308 19.4011 114.308 18.8488V13.0632C114.308 12.5109 114.756 12.0632 115.308 12.0632H117.558C117.823 12.0632 118.078 12.1686 118.265 12.3561Z" stroke="#303030" stroke-width="2"/>
<path fill-rule="evenodd" clip-rule="evenodd" d="M120.596 8.77629C120.409 8.58876 120.154 8.4834 119.889 8.4834H111.726C111.174 8.4834 110.726 8.93111 110.726 9.4834V30.2141C110.726 30.7664 111.174 31.2141 111.726 31.2141H112.642C112.533 31.6825 112.475 32.1705 112.475 32.672C112.475 32.8546 112.483 33.0354 112.498 33.2141H111.726C110.069 33.2141 108.726 31.871 108.726 30.2141V9.4834C108.726 7.82654 110.069 6.4834 111.726 6.4834H119.889C120.685 6.4834 121.448 6.79947 122.01 7.36208L129.082 14.4341C129.645 14.9967 129.961 15.7597 129.961 16.5554V30.2141C129.961 31.871 128.618 33.2141 126.961 33.2141H125.495C125.421 33.2141 125.348 33.2112 125.277 33.206C125.291 33.0299 125.298 32.8518 125.298 32.672C125.298 32.1533 125.237 31.649 125.121 31.1659C125.172 31.1742 125.225 31.1831 125.278 31.1927C125.361 31.2075 125.433 31.2141 125.495 31.2141H126.961C127.513 31.2141 127.961 30.7664 127.961 30.2141V16.5554C127.961 16.2902 127.856 16.0358 127.668 15.8483L120.596 8.77629Z" fill="#303030"/>
<circle cx="6.41167" cy="6.41167" r="5.41167" transform="matrix(-1 0 0 1 125.297 26.2606)" stroke="#303030" stroke-width="2"/>
<path fill-rule="evenodd" clip-rule="evenodd" d="M108.727 3.07178C108.727 2.51949 108.279 2.07178 107.727 2.07178H55.8535C55.3012 2.07178 54.8535 2.51949 54.8535 3.07178V30.6721C54.8535 31.2244 55.3012 31.6721 55.8535 31.6721H65.1356C64.9464 32.2772 64.8444 32.9207 64.8444 33.5881C64.8444 33.6162 64.8446 33.6442 64.8449 33.6721H55.8535C54.1966 33.6721 52.8535 32.329 52.8535 30.6721V3.07178C52.8535 1.41492 54.1966 0.0717773 55.8535 0.0717773H107.727C109.383 0.0717773 110.727 1.41492 110.727 3.07178V7.48345V30.6721C110.727 32.329 109.383 33.6721 107.727 33.6721H77.6672C77.6676 33.6442 77.6677 33.6162 77.6677 33.5881C77.6677 32.9207 77.5658 32.2772 77.3766 31.6721H107.727C108.279 31.6721 108.727 31.2244 108.727 30.6721V7.48345V3.07178Z" fill="#303030"/>
<circle cx="6.41167" cy="6.41167" r="5.41167" transform="matrix(-1 0 0 1 77.6641 27.1766)" stroke="#303030" stroke-width="2"/>
<rect x="60.7305" y="6.57068" width="41.2422" height="19.2463" rx="6" fill="#FF5C04"/>
</svg>
